# xmcd
#
# Track frame offsets:
#	150
#	17902
#	28917
#	41015
#	53900
#	76642
#	96442
#	122217
#
# Disc length: 1940 seconds
#
# Revision: 1
# Processed by: cddbd v1.5.1PL0 Copyright (c) Steve Scherf et al.
# Submitted via: CDex 1.50Beta5
#
DISCID=64079208
DTITLE=行方知レズ - イカレタ世界
DYEAR=1900
DGENRE=Pop
TTITLE0=カサベテス
TTITLE1=神様ブルース
TTITLE2=ミルマエ
TTITLE3=インドガン
TTITLE4=イカレタ世界
TTITLE5=インチ
TTITLE6=300本
TTITLE7=東京の影
EXTD=
EXTT0=
EXTT1=
EXTT2=
EXTT3=
EXTT4=
EXTT5=
EXTT6=
EXTT7=
PLAYORDER=
